<?xml version="1.0" encoding="UTF-8"?>
<!DOCTYPE svg PUBLIC "-//W3C//DTD SVG 1.1//EN" "http://www.w3.org/Graphics/SVG/1.1/DTD/svg11.dtd">
<!-- Creator: CorelDRAW 2020 (64-Bit) -->
<svg xmlns="http://www.w3.org/2000/svg" xml:space="preserve" width="24px" height="20px" version="1.1" style="shape-rendering:geometricPrecision; text-rendering:geometricPrecision; image-rendering:optimizeQuality; fill-rule:evenodd; clip-rule:evenodd"
viewBox="0 0 4.37 3.65"
 xmlns:xlink="http://www.w3.org/1999/xlink"
 xmlns:xodm="http://www.corel.com/coreldraw/odm/2003">
 <defs>
  <style type="text/css">
   <![CDATA[
    .fil0 {fill:none}
    .fil1 {fill:black}
   ]]>
  </style>
 </defs>
 <g id="Layer_x0020_1">
  <metadata id="CorelCorpID_0Corel-Layer"/>
  <g id="_2521746082496">
   <polygon class="fil0" points="0,3.65 4.37,3.65 4.37,0 0,0 "/>
   <path class="fil1" d="M0.42 0.18c-0.25,0.06 -0.18,0.33 -0.18,0.7l0 1.7c0,0.3 0.03,0.52 0.22,0.65 0.24,0.16 0.46,0.13 0.79,0.13 0.44,0 2.63,0.02 2.75,-0.02 0.23,-0.06 0.25,-0.43 -0.12,-0.44 -0.87,-0.01 -1.86,0 -2.75,0 -0.47,0 -0.41,0.06 -0.41,-0.47 0,-0.24 0.02,-2.02 -0.01,-2.12 -0.04,-0.1 -0.15,-0.17 -0.29,-0.13z"/>
   <path class="fil1" d="M3 1.37l-0.43 0.41c-0.11,-0.05 -0.44,-0.44 -0.58,-0.54 -0.24,-0.16 -0.47,0.14 -0.7,0.35 -0.07,0.07 -0.23,0.2 -0.28,0.27 -0.09,0.16 0,0.32 0.16,0.35 0.26,0.05 0.49,-0.39 0.66,-0.46 0.29,0.21 0.52,0.61 0.79,0.57 0.16,-0.02 0.59,-0.51 0.74,-0.62 0.08,0.04 0.18,0.17 0.26,0.23 0.12,0.1 0.28,0.02 0.3,-0.12 0.01,-0.14 0,-0.33 0,-0.47 0,-0.51 0.04,-0.49 -0.51,-0.49 -0.15,0 -0.39,-0.01 -0.53,0 -0.14,0.02 -0.22,0.15 -0.14,0.27 0.07,0.08 0.19,0.16 0.26,0.25z"/>
  </g>
 </g>
</svg>
